# Blender v2.79 (sub 0) OBJ File: ''
# www.blender.org
mtllib libro.mtl
o pages
v 0.413158 1.549302 0.159853
v 0.413158 1.549302 -0.160161
v -0.040195 1.549302 -0.000154
v 0.425886 0.055903 -0.068200
v 0.425886 1.549302 -0.068200
v 0.434227 0.802603 -0.000154
v 0.425886 1.549302 0.071598
v 0.425886 0.055903 0.071598
v 0.413158 0.055903 -0.160161
v 0.413158 0.055903 0.159853
v -0.040195 0.055903 -0.000154
v -0.461937 1.549302 -0.000154
v -0.469528 0.055904 -0.084634
v -0.461937 0.055904 -0.000154
v -0.472628 0.055904 0.083688
v -0.491976 1.549302 -0.160160
v -0.469528 1.549302 -0.084634
v -0.492168 1.549302 0.159853
v -0.492168 0.055904 0.159853
v -0.491976 0.055904 -0.160160
v -0.472628 1.549302 0.083688
vn 0.0000 1.0000 -0.0000
vn 0.7182 -0.6939 -0.0520
vn 0.7182 0.6939 -0.0520
vn 1.0000 -0.0000 -0.0031
vn 0.7187 0.6932 0.0541
vn 0.7187 -0.6932 0.0541
vn 0.0000 -1.0000 0.0000
vn -0.9998 0.0000 -0.0186
vn -0.9821 0.0000 0.1881
vn -0.9822 0.0000 -0.1879
vn -0.9822 0.0000 -0.1878
vn -0.9686 0.0000 -0.2485
vn -0.9586 0.0000 0.2849
vn 0.9868 -0.0872 -0.1366
vn 0.9868 0.0872 -0.1366
vn 0.9857 -0.0908 0.1422
vn 0.9857 0.0908 0.1421
usemtl papier
s 1
f 1//1 2//1 3//1
f 4//2 5//3 6//4
f 5//3 7//5 6//4
f 7//5 8//6 6//4
f 8//6 4//2 6//4
f 9//7 10//7 11//7
f 12//8 13//9 14//8
f 15//7 14//7 11//7
f 16//1 17//1 3//1
f 2//1 16//1 3//1
f 17//1 12//1 3//1
f 3//1 18//1 1//1
f 19//7 15//7 11//7
f 11//7 20//7 9//7
f 14//7 13//7 11//7
f 10//7 19//7 11//7
f 21//10 15//11 18//12
f 13//9 12//8 17//9
f 17//9 20//13 13//9
f 15//11 19//12 18//12
f 14//8 21//10 12//8
f 21//1 3//1 12//1
f 20//13 17//9 16//13
f 13//7 20//7 11//7
f 21//10 14//8 15//11
f 21//1 18//1 3//1
f 9//14 2//15 4//2
f 4//2 2//15 5//3
f 10//16 9//14 8//6
f 8//6 9//14 4//2
f 2//15 1//17 5//3
f 5//3 1//17 7//5
f 1//17 10//16 7//5
f 7//5 10//16 8//6
o bas_tranche
v 0.415937 0.019645 0.166080
v 0.414253 0.019645 0.157368
v 0.447326 0.019349 0.078173
v 0.443117 0.019385 0.070947
v 0.458699 0.019645 -0.000034
v 0.453233 0.019645 -0.000034
v 0.450265 0.019645 -0.078907
v 0.445732 0.019645 -0.071621
v 0.415937 0.019645 -0.165971
v 0.414253 0.019645 -0.157274
vn -0.0061 -1.0000 0.0012
vn -0.0062 -1.0000 0.0012
vn -0.0070 -1.0000 -0.0008
vn -0.0033 -1.0000 -0.0029
vn -0.0000 -1.0000 -0.0018
vn 0.0000 -1.0000 -0.0019
vn 0.0000 -1.0000 -0.0000
usemtl bordeaux
s 1
f 22//18 23//19 24//20
f 24//20 25//21 26//22
f 26//22 27//23 28//24
f 28//24 29//24 30//24
f 23//19 25//21 24//20
f 26//22 25//21 27//23
f 28//24 27//23 29//24
f 30//24 29//24 31//24
o tranche
v 0.415937 1.583070 0.166080
v 0.415937 0.019948 0.166080
v 0.447326 0.018855 0.078173
v 0.447326 1.583367 0.078173
v 0.458699 0.019948 -0.000034
v 0.458700 1.583070 -0.000034
v 0.450265 0.019948 -0.078907
v 0.450265 1.583070 -0.078907
v 0.415937 0.019948 -0.165971
v 0.415937 1.583070 -0.165971
v 0.414253 1.583070 0.157368
v 0.443118 1.583331 0.070947
v 0.414253 0.019625 -0.157274
v 0.445732 1.583070 -0.071621
v 0.414253 1.583070 -0.157274
v 0.453234 1.583070 -0.000034
v 0.443117 0.018751 0.070947
v 0.453233 0.019625 -0.000034
v 0.414253 0.019625 0.157368
v 0.445732 0.019625 -0.071621
vn 0.9418 -0.0000 0.3363
vn 0.9704 -0.0000 0.2414
vn 0.9705 -0.0000 0.2413
vn 0.9998 -0.0000 0.0195
vn 0.9998 -0.0000 0.0191
vn 0.9711 -0.0000 -0.2387
vn 0.9303 -0.0000 -0.3668
vn -0.0061 1.0000 0.0012
vn -0.0071 1.0000 -0.0008
vn -0.0062 1.0000 0.0012
vn -0.0000 1.0000 -0.0018
vn -0.0035 1.0000 -0.0030
vn -0.9386 0.0000 0.3450
vn -0.9741 0.0000 0.2263
vn 0.0000 1.0000 0.0000
vn 0.0000 1.0000 -0.0019
vn -0.9732 -0.0000 -0.2299
vn -0.9485 0.0000 -0.3168
vn -0.9998 0.0000 -0.0191
vn -0.9998 0.0000 -0.0187
vn -0.9732 0.0009 -0.2300
usemtl bordeaux
s 1
f 32//25 33//25 34//26
f 35//27 34//26 36//28
f 37//29 36//28 38//30
f 39//30 38//30 40//31
f 32//25 34//26 35//27
f 35//27 36//28 37//29
f 37//29 38//30 39//30
f 39//30 40//31 41//31
f 32//32 35//33 42//34
f 35//33 37//35 43//36
f 44//37 45//38 46//37
f 37//35 39//39 47//40
f 48//41 42//42 43//41
f 39//39 41//39 45//39
f 49//43 43//41 47//44
f 48//45 50//42 42//42
f 49//43 48//41 43//41
f 51//38 47//44 45//38
f 42//34 35//33 43//36
f 37//35 47//40 43//36
f 39//39 45//39 47//40
f 45//38 44//37 51//38
f 41//39 46//39 45//39
f 47//44 51//38 49//43
o face_arriere
v 0.417789 1.584461 -0.162318
v 0.417789 0.019948 -0.162318
v 0.417789 0.802204 -0.162318
v 0.417789 1.584461 -0.162318
v 0.417789 0.019948 -0.162318
v -0.044453 1.584461 -0.162318
v -0.506695 1.584461 -0.162318
v -0.506695 1.584461 -0.162318
v 0.413323 0.025198 -0.156985
v 0.413323 1.579211 -0.156985
v -0.044453 0.802204 -0.156985
v -0.502229 1.579211 -0.156984
v -0.502229 0.025198 -0.156984
v -0.044453 0.019948 -0.162318
v -0.506695 0.019948 -0.162318
v -0.506695 0.019948 -0.162318
v -0.506695 0.802204 -0.162318
v 0.413323 1.579211 -0.167652
v 0.413323 0.025198 -0.167652
v -0.044453 0.802204 -0.167652
v -0.502229 0.025198 -0.167651
v -0.502229 1.579211 -0.167651
v 0.416450 0.021523 -0.158585
v 0.416450 1.582886 -0.158585
v -0.505356 0.021523 -0.158584
v -0.505356 1.582886 -0.158584
v 0.416450 1.582886 -0.166052
v 0.416450 0.021523 -0.166052
v -0.505356 1.582886 -0.166051
v -0.505356 0.021523 -0.166051
vn 0.2586 0.2656 0.9287
vn 0.2586 -0.2656 0.9287
vn 0.0000 0.0000 1.0000
vn 0.4055 0.4165 0.8137
vn 0.4055 -0.4165 0.8137
vn 0.4083 -0.9081 0.0930
vn -0.4056 0.4166 0.8136
vn -0.2587 0.2657 0.9287
vn 0.1835 -0.1510 0.9714
vn 0.1835 0.1510 0.9713
vn -0.1835 0.1510 0.9714
vn -0.1835 -0.1510 0.9714
vn 0.3827 0.7214 0.5772
vn -0.2586 -0.2657 0.9287
vn -0.4056 -0.4166 0.8136
vn 0.1835 0.1510 -0.9713
vn 0.1835 -0.1510 -0.9714
vn -0.0000 0.0000 -1.0000
vn -0.1835 -0.1510 -0.9714
vn -0.1835 0.1510 -0.9714
vn 0.5197 -0.5012 0.6919
vn 0.5197 0.5012 0.6919
vn -0.5197 -0.5012 0.6919
vn -0.5197 0.5012 0.6919
vn 0.5197 0.5012 -0.6919
vn 0.5197 -0.5012 -0.6919
vn -0.5197 0.5012 -0.6919
vn -0.5197 -0.5012 -0.6919
usemtl bordeaux
s 1
f 52//46 53//47 54//48
f 55//49 52//46 54//48
f 56//50 55//49 54//48
f 53//47 56//50 54//48
f 52//46 55//49 57//51
f 55//49 58//52 57//51
f 58//52 59//53 57//51
f 59//53 52//46 57//51
f 60//54 61//55 62//48
f 61//55 63//56 62//48
f 63//56 64//57 62//48
f 64//57 60//54 62//48
f 56//50 53//47 65//58
f 53//47 66//59 65//58
f 66//59 67//60 65//58
f 67//60 56//50 65//58
f 66//59 59//53 68//48
f 59//53 58//52 68//48
f 58//52 67//60 68//48
f 67//60 66//59 68//48
f 69//61 70//62 71//63
f 70//62 72//64 71//63
f 72//64 73//65 71//63
f 73//65 69//61 71//63
f 53//47 52//46 74//66
f 74//66 52//46 75//67
f 66//59 53//47 76//68
f 76//68 53//47 74//66
f 52//46 59//53 75//67
f 75//67 59//53 77//69
f 59//53 66//59 77//69
f 77//69 66//59 76//68
f 74//66 75//67 60//54
f 60//54 75//67 61//55
f 76//68 74//66 64//57
f 64//57 74//66 60//54
f 75//67 77//69 61//55
f 61//55 77//69 63//56
f 77//69 76//68 63//56
f 63//56 76//68 64//57
f 55//49 56//50 78//70
f 78//70 56//50 79//71
f 58//52 55//49 80//72
f 80//72 55//49 78//70
f 56//50 67//60 79//71
f 79//71 67//60 81//73
f 67//60 58//52 81//73
f 81//73 58//52 80//72
f 78//70 79//71 69//61
f 69//61 79//71 70//62
f 80//72 78//70 73//65
f 73//65 78//70 69//61
f 79//71 81//73 70//62
f 70//62 81//73 72//64
f 81//73 80//72 72//64
f 72//64 80//72 73//65
o face_avant
v 0.417789 1.584461 0.162318
v 0.417789 0.019948 0.162318
v 0.417789 0.802204 0.162318
v 0.417789 1.584461 0.162318
v 0.417789 0.019948 0.162318
v -0.044453 1.584461 0.162318
v -0.506695 1.584461 0.162318
v -0.506695 1.584461 0.162318
v 0.413323 0.025198 0.167652
v 0.413323 1.579211 0.167652
v -0.044453 0.802204 0.167652
v -0.502229 1.579211 0.167652
v -0.502229 0.025198 0.167652
v -0.044453 0.019948 0.162318
v -0.506695 0.019948 0.162318
v -0.506695 0.019948 0.162318
v -0.506695 0.802204 0.162318
v 0.413323 1.579211 0.156985
v 0.413323 0.025198 0.156985
v -0.044453 0.802204 0.156985
v -0.502229 0.025198 0.156985
v -0.502229 1.579211 0.156985
v 0.416450 0.021523 0.166052
v 0.416450 1.582886 0.166052
v -0.505356 0.021523 0.166052
v -0.505356 1.582886 0.166052
v 0.416450 1.582886 0.158585
v 0.416450 0.021523 0.158585
v -0.505356 1.582886 0.158585
v -0.505356 0.021523 0.158585
vn 0.2586 0.2656 0.9287
vn 0.2586 -0.2656 0.9287
vn 0.0000 0.0000 1.0000
vn 0.4055 0.4165 0.8137
vn 0.4055 -0.4165 0.8137
vn 0.4083 -0.9081 -0.0930
vn -0.4056 0.4166 0.8136
vn -0.2587 0.2657 0.9287
vn 0.1835 -0.1510 0.9714
vn 0.1835 0.1510 0.9714
vn -0.1835 0.1510 0.9713
vn -0.1835 -0.1510 0.9714
vn 0.3827 -0.9239 -0.0000
vn -0.2586 -0.2657 0.9287
vn -0.4056 -0.4166 0.8136
vn 0.1835 0.1510 -0.9714
vn 0.1835 -0.1510 -0.9714
vn -0.0000 0.0000 -1.0000
vn -0.1835 -0.1510 -0.9714
vn -0.1835 0.1510 -0.9714
vn 0.5197 -0.5012 0.6919
vn 0.5197 0.5012 0.6919
vn -0.5197 -0.5012 0.6919
vn -0.5197 0.5012 0.6919
vn 0.5197 0.5012 -0.6919
vn 0.5197 -0.5012 -0.6919
vn -0.5197 0.5012 -0.6919
vn -0.5197 -0.5012 -0.6919
usemtl bordeaux
s 1
f 82//74 83//75 84//76
f 85//77 82//74 84//76
f 86//78 85//77 84//76
f 83//75 86//78 84//76
f 82//74 85//77 87//79
f 85//77 88//80 87//79
f 88//80 89//81 87//79
f 89//81 82//74 87//79
f 90//82 91//83 92//76
f 91//83 93//84 92//76
f 93//84 94//85 92//76
f 94//85 90//82 92//76
f 86//78 83//75 95//86
f 83//75 96//87 95//86
f 96//87 97//88 95//86
f 97//88 86//78 95//86
f 96//87 89//81 98//76
f 89//81 88//80 98//76
f 88//80 97//88 98//76
f 97//88 96//87 98//76
f 99//89 100//90 101//91
f 100//90 102//92 101//91
f 102//92 103//93 101//91
f 103//93 99//89 101//91
f 83//75 82//74 104//94
f 104//94 82//74 105//95
f 96//87 83//75 106//96
f 106//96 83//75 104//94
f 82//74 89//81 105//95
f 105//95 89//81 107//97
f 89//81 96//87 107//97
f 107//97 96//87 106//96
f 104//94 105//95 90//82
f 90//82 105//95 91//83
f 106//96 104//94 94//85
f 94//85 104//94 90//82
f 105//95 107//97 91//83
f 91//83 107//97 93//84
f 107//97 106//96 93//84
f 93//84 106//96 94//85
f 85//77 86//78 108//98
f 108//98 86//78 109//99
f 88//80 85//77 110//100
f 110//100 85//77 108//98
f 86//78 97//88 109//99
f 109//99 97//88 111//101
f 97//88 88//80 111//101
f 111//101 88//80 110//100
f 108//98 109//99 99//89
f 99//89 109//99 100//90
f 110//100 108//98 103//93
f 103//93 108//98 99//89
f 109//99 111//101 100//90
f 100//90 111//101 102//92
f 111//101 110//100 102//92
f 102//92 110//100 103//93
